# xmcd CD database file
#
# Track frame offsets:
#	150
#	23531
#	43679
#	91239
#	114201
#	142141
#	168787
#	194918
#	232745
#	253216
#	275728
#	306264
#	327376
#
# Disc length: 4628 seconds
#
# Revision: 0
# Processed by: cddbd v1.5.2PL0 Copyright (c) Steve Scherf et al.
# Submitted via: CDex 1.51
#
DISCID=b512120d
DTITLE=Nat Adderley - That's Nat (1955) and Branching Out (1958)
DYEAR=1955
DGENRE=Jazz
TTITLE0=Porky
TTITLE1=I Married An Angel
TTITLE2=Big E
TTITLE3=Kuzzin's Buzzin'
TTITLE4=Ann Springs
TTITLE5=You Better Go Now
TTITLE6=Sister Caroline
TTITLE7=Well, You Needn't
TTITLE8=Don't Get Around Much Anymore
TTITLE9=I Got Plenty Of Nothin'
TTITLE10=Branching Out
TTITLE11=I Never Knew I Could Love Anybody ( Like I'm Loving You )
TTITLE12=Warm Blue Stream
EXTD=YEAR: 1955
EXTT0=
EXTT1=
EXTT2=
EXTT3=
EXTT4=
EXTT5=
EXTT6=
EXTT7=
EXTT8=
EXTT9=
EXTT10=
EXTT11=
EXTT12=
PLAYORDER=
